<svg xmlns="http://www.w3.org/2000/svg" width="42" height="51" viewBox="0 0 42 51">
  <metadata><?xpacket begin="﻿" id="W5M0MpCehiHzreSzNTczkc9d"?>
<x:xmpmeta xmlns:x="adobe:ns:meta/" x:xmptk="Adobe XMP Core 5.6-c138 79.159824, 2016/09/14-01:09:01        ">
   <rdf:RDF xmlns:rdf="http://www.w3.org/1999/02/22-rdf-syntax-ns#">
      <rdf:Description rdf:about=""/>
   </rdf:RDF>
</x:xmpmeta>
                                                                                                    
                                                                                                    
                                                                                                    
                                                                                                    
                                                                                                    
                                                                                                    
                                                                                                    
                                                                                                    
                                                                                                    
                                                                                                    
                                                                                                    
                                                                                                    
                                                                                                    
                                                                                                    
                                                                                                    
                                                                                                    
                                                                                                    
                                                                                                    
                                                                                                    
                                                                                                    
                           
<?xpacket end="w"?></metadata>
<defs>
    <style>
      .cls-1 {
        fill: #FFFFFF;
        fill-rule: evenodd;
      }
    </style>
  </defs>
  <path id="Log_in" data-name="Log in" class="cls-1" d="M1805.94,2754.98q-9.21,0-18.41,0c-2.25,0-2.62-.42-2.52-2.69,0.48-10.56,9.1-19.19,19.97-20,9.89-.73,19.75,7.01,21.65,17.04a22.4,22.4,0,0,1,.38,3.56c0.06,1.59-.47,2.08-2.19,2.08C1818.53,2754.99,1812.23,2754.98,1805.94,2754.98Zm17.95-3.2c-0.8-6.53-3.75-11.46-9.5-14.32a17.618,17.618,0,0,0-19.17,1.48c-4.33,3.08-6.53,7.46-7.07,12.84h35.74Zm-17.92-47.79a12.365,12.365,0,1,1-12.29,12.43A12.593,12.593,0,0,1,1805.97,2703.99Zm0.13,3.13a9.236,9.236,0,1,0,9.11,9.24A8.91,8.91,0,0,0,1806.1,2707.12Z" transform="translate(-1785 -2704)"/>
</svg>
